<mxfile host="Electron" agent="Mozilla/5.0 (Macintosh; Intel Mac OS X 10_15_7) AppleWebKit/537.36 (KHTML, like Gecko) draw.io/25.0.2 Chrome/128.0.6613.186 Electron/32.2.5 Safari/537.36" version="25.0.2">
  <diagram id="WI9T0HZ2pTsCkuznbFz-" name="Page-1">
    <mxGraphModel dx="1793" dy="1134" grid="1" gridSize="10" guides="1" tooltips="1" connect="1" arrows="1" fold="1" page="1" pageScale="1" pageWidth="1169" pageHeight="827" math="0" shadow="0">
      <root>
        <mxCell id="0" />
        <mxCell id="1" parent="0" />
        <mxCell id="yQf950M53q0c9-qwUwS5-22" value="" style="group" vertex="1" connectable="0" parent="1">
          <mxGeometry x="60" y="780" width="120" height="112.5" as="geometry" />
        </mxCell>
        <mxCell id="yQf950M53q0c9-qwUwS5-10" value="" style="image;aspect=fixed;html=1;points=[];align=center;fontSize=12;image=img/lib/azure2/app_services/App_Service_Domains.svg;textDirection=rtl;textShadow=1;" vertex="1" parent="yQf950M53q0c9-qwUwS5-22">
          <mxGeometry x="20" width="80" height="64.72" as="geometry" />
        </mxCell>
        <mxCell id="yQf950M53q0c9-qwUwS5-21" value="Single-page web&amp;nbsp;&lt;div&gt;application&lt;/div&gt;" style="text;html=1;align=center;verticalAlign=middle;resizable=0;points=[];autosize=1;strokeColor=none;fillColor=none;" vertex="1" parent="yQf950M53q0c9-qwUwS5-22">
          <mxGeometry y="72.5" width="120" height="40" as="geometry" />
        </mxCell>
        <mxCell id="yQf950M53q0c9-qwUwS5-52" value="" style="endArrow=none;html=1;rounded=0;" edge="1" parent="1">
          <mxGeometry width="50" height="50" relative="1" as="geometry">
            <mxPoint x="160" y="819.57" as="sourcePoint" />
            <mxPoint x="280" y="819.57" as="targetPoint" />
          </mxGeometry>
        </mxCell>
        <mxCell id="yQf950M53q0c9-qwUwS5-56" value="" style="endArrow=none;html=1;rounded=0;" edge="1" parent="1">
          <mxGeometry width="50" height="50" relative="1" as="geometry">
            <mxPoint x="280" y="920" as="sourcePoint" />
            <mxPoint x="280" y="720" as="targetPoint" />
          </mxGeometry>
        </mxCell>
        <mxCell id="yQf950M53q0c9-qwUwS5-2" value="" style="rounded=0;whiteSpace=wrap;html=1;" vertex="1" parent="1">
          <mxGeometry x="400" y="640" width="560" height="160" as="geometry" />
        </mxCell>
        <mxCell id="yQf950M53q0c9-qwUwS5-3" value="" style="rounded=0;whiteSpace=wrap;html=1;" vertex="1" parent="1">
          <mxGeometry x="400" y="840" width="560" height="160" as="geometry" />
        </mxCell>
        <mxCell id="yQf950M53q0c9-qwUwS5-14" value="" style="image;aspect=fixed;html=1;points=[];align=center;fontSize=12;image=img/lib/azure2/app_services/API_Management_Services.svg;" vertex="1" parent="1">
          <mxGeometry x="470" y="887.5" width="70.15" height="65" as="geometry" />
        </mxCell>
        <mxCell id="yQf950M53q0c9-qwUwS5-17" value="" style="image;aspect=fixed;html=1;points=[];align=center;fontSize=12;image=img/lib/azure2/compute/Function_Apps.svg;" vertex="1" parent="1">
          <mxGeometry x="645" y="881.4100000000001" width="80" height="70.59" as="geometry" />
        </mxCell>
        <mxCell id="yQf950M53q0c9-qwUwS5-39" value="API Management" style="text;html=1;align=center;verticalAlign=middle;resizable=0;points=[];autosize=1;strokeColor=none;fillColor=none;fontStyle=0" vertex="1" parent="1">
          <mxGeometry x="445.08" y="951.9992234169654" width="120" height="30" as="geometry" />
        </mxCell>
        <mxCell id="yQf950M53q0c9-qwUwS5-28" value="Content Delivery&amp;nbsp;&lt;div&gt;Network&lt;/div&gt;" style="text;html=1;align=center;verticalAlign=middle;resizable=0;points=[];autosize=1;strokeColor=none;fillColor=none;" vertex="1" parent="1">
          <mxGeometry x="470" y="752.1992234169654" width="120" height="40" as="geometry" />
        </mxCell>
        <mxCell id="yQf950M53q0c9-qwUwS5-29" value="" style="image;sketch=0;aspect=fixed;html=1;points=[];align=center;fontSize=12;image=img/lib/mscae/Content_Delivery_Network.svg;" vertex="1" parent="1">
          <mxGeometry x="462.5" y="698.15" width="112.72" height="51.85" as="geometry" />
        </mxCell>
        <mxCell id="yQf950M53q0c9-qwUwS5-43" value="Azure Functions" style="text;html=1;align=center;verticalAlign=middle;resizable=0;points=[];autosize=1;strokeColor=none;fillColor=none;fontStyle=0" vertex="1" parent="1">
          <mxGeometry x="630" y="951.9992234169654" width="110" height="30" as="geometry" />
        </mxCell>
        <mxCell id="yQf950M53q0c9-qwUwS5-18" value="" style="image;aspect=fixed;html=1;points=[];align=center;fontSize=12;image=img/lib/azure2/databases/Azure_Cosmos_DB.svg;" vertex="1" parent="1">
          <mxGeometry x="830" y="876.7" width="80" height="80" as="geometry" />
        </mxCell>
        <mxCell id="yQf950M53q0c9-qwUwS5-15" value="" style="image;sketch=0;aspect=fixed;html=1;points=[];align=center;fontSize=12;image=img/lib/mscae/Blog_Storage.svg;" vertex="1" parent="1">
          <mxGeometry x="830" y="687.8" width="70" height="64.4" as="geometry" />
        </mxCell>
        <mxCell id="yQf950M53q0c9-qwUwS5-31" value="Azure Blob Storage" style="text;html=1;align=center;verticalAlign=middle;resizable=0;points=[];autosize=1;strokeColor=none;fillColor=none;" vertex="1" parent="1">
          <mxGeometry x="800" y="752.2" width="130" height="30" as="geometry" />
        </mxCell>
        <mxCell id="yQf950M53q0c9-qwUwS5-65" value="" style="endArrow=classic;html=1;rounded=0;" edge="1" parent="1">
          <mxGeometry width="50" height="50" relative="1" as="geometry">
            <mxPoint x="280" y="719.62" as="sourcePoint" />
            <mxPoint x="450" y="720" as="targetPoint" />
            <Array as="points">
              <mxPoint x="360" y="719.62" />
            </Array>
          </mxGeometry>
        </mxCell>
        <mxCell id="yQf950M53q0c9-qwUwS5-62" value="" style="endArrow=classic;html=1;rounded=0;" edge="1" parent="1">
          <mxGeometry width="50" height="50" relative="1" as="geometry">
            <mxPoint x="280" y="920" as="sourcePoint" />
            <mxPoint x="450" y="920" as="targetPoint" />
          </mxGeometry>
        </mxCell>
        <mxCell id="yQf950M53q0c9-qwUwS5-67" value="Azure Cosmos DB" style="text;html=1;align=center;verticalAlign=middle;resizable=0;points=[];autosize=1;strokeColor=none;fillColor=none;" vertex="1" parent="1">
          <mxGeometry x="810" y="951.9992234169654" width="120" height="30" as="geometry" />
        </mxCell>
        <mxCell id="yQf950M53q0c9-qwUwS5-70" value="" style="endArrow=classic;html=1;rounded=0;" edge="1" parent="1">
          <mxGeometry width="50" height="50" relative="1" as="geometry">
            <mxPoint x="557.5" y="919.5699999999999" as="sourcePoint" />
            <mxPoint x="637.5" y="919.5699999999999" as="targetPoint" />
          </mxGeometry>
        </mxCell>
        <mxCell id="yQf950M53q0c9-qwUwS5-71" value="" style="endArrow=classic;html=1;rounded=0;" edge="1" parent="1">
          <mxGeometry width="50" height="50" relative="1" as="geometry">
            <mxPoint x="740" y="916.27" as="sourcePoint" />
            <mxPoint x="820" y="916.27" as="targetPoint" />
          </mxGeometry>
        </mxCell>
        <mxCell id="yQf950M53q0c9-qwUwS5-77" value="" style="endArrow=classic;html=1;rounded=0;" edge="1" parent="1">
          <mxGeometry width="50" height="50" relative="1" as="geometry">
            <mxPoint x="800" y="722.8199999999999" as="sourcePoint" />
            <mxPoint x="590" y="723" as="targetPoint" />
          </mxGeometry>
        </mxCell>
        <mxCell id="yQf950M53q0c9-qwUwS5-78" value="" style="group" vertex="1" connectable="0" parent="1">
          <mxGeometry x="1000" y="640" width="160" height="370" as="geometry" />
        </mxCell>
        <mxCell id="yQf950M53q0c9-qwUwS5-4" value="" style="rounded=0;whiteSpace=wrap;html=1;" vertex="1" parent="yQf950M53q0c9-qwUwS5-78">
          <mxGeometry width="160" height="360" as="geometry" />
        </mxCell>
        <mxCell id="yQf950M53q0c9-qwUwS5-63" value="" style="group" vertex="1" connectable="0" parent="yQf950M53q0c9-qwUwS5-78">
          <mxGeometry y="10" width="160" height="360" as="geometry" />
        </mxCell>
        <mxCell id="yQf950M53q0c9-qwUwS5-19" value="" style="dashed=0;outlineConnect=0;html=1;align=center;labelPosition=center;verticalLabelPosition=bottom;verticalAlign=top;shape=mxgraph.weblogos.github" vertex="1" parent="yQf950M53q0c9-qwUwS5-63">
          <mxGeometry x="44.44" y="30" width="71.11" height="70" as="geometry" />
        </mxCell>
        <mxCell id="yQf950M53q0c9-qwUwS5-37" value="" style="image;aspect=fixed;html=1;points=[];align=center;fontSize=12;image=img/lib/azure2/management_governance/Monitor.svg;" vertex="1" parent="yQf950M53q0c9-qwUwS5-63">
          <mxGeometry x="44.44" y="229.39" width="71.11" height="71.11" as="geometry" />
        </mxCell>
        <mxCell id="yQf950M53q0c9-qwUwS5-88" value="CI/CD" style="text;html=1;align=left;verticalAlign=middle;whiteSpace=wrap;rounded=0;strokeColor=none;fontStyle=1" vertex="1" parent="yQf950M53q0c9-qwUwS5-63">
          <mxGeometry x="8.88888888888889" width="80" height="20" as="geometry" />
        </mxCell>
        <mxCell id="yQf950M53q0c9-qwUwS5-36" value="GitHub Actions" style="text;html=1;align=center;verticalAlign=middle;resizable=0;points=[];autosize=1;strokeColor=none;fillColor=none;" vertex="1" parent="yQf950M53q0c9-qwUwS5-78">
          <mxGeometry x="29.99555555555556" y="119.99922341696538" width="100" height="30" as="geometry" />
        </mxCell>
        <mxCell id="yQf950M53q0c9-qwUwS5-38" value="Azure Monitor" style="text;html=1;align=center;verticalAlign=middle;resizable=0;points=[];autosize=1;strokeColor=none;fillColor=none;" vertex="1" parent="yQf950M53q0c9-qwUwS5-78">
          <mxGeometry x="29.99555555555556" y="310.4992234169653" width="100" height="30" as="geometry" />
        </mxCell>
        <mxCell id="yQf950M53q0c9-qwUwS5-80" value="HTTP GET" style="text;html=1;align=left;verticalAlign=middle;whiteSpace=wrap;rounded=0;strokeColor=none;" vertex="1" parent="1">
          <mxGeometry x="280" y="698.15" width="70" height="12.2" as="geometry" />
        </mxCell>
        <mxCell id="yQf950M53q0c9-qwUwS5-84" value="HTTP GET" style="text;html=1;align=left;verticalAlign=middle;whiteSpace=wrap;rounded=0;strokeColor=none;" vertex="1" parent="1">
          <mxGeometry x="280" y="930" width="70" height="12.2" as="geometry" />
        </mxCell>
        <mxCell id="yQf950M53q0c9-qwUwS5-85" value="Static content" style="text;html=1;align=left;verticalAlign=middle;whiteSpace=wrap;rounded=0;strokeColor=none;fontStyle=1" vertex="1" parent="1">
          <mxGeometry x="410" y="650" width="90" height="20" as="geometry" />
        </mxCell>
        <mxCell id="yQf950M53q0c9-qwUwS5-86" value="API" style="text;html=1;align=left;verticalAlign=middle;whiteSpace=wrap;rounded=0;strokeColor=none;fontStyle=1" vertex="1" parent="1">
          <mxGeometry x="410" y="850" width="90" height="20" as="geometry" />
        </mxCell>
      </root>
    </mxGraphModel>
  </diagram>
</mxfile>
